<svg version="1.0" xmlns="http://www.w3.org/2000/svg" width="120px" height="138px" viewBox="0 0 1200 1380" preserveAspectRatio="xMidYMid meet">
 <g id="layer101" fill="#4fc877" stroke="none">
  <path d="M94 1355 c-14 -14 -39 -54 -55 -89 l-30 -64 26 -79 c49 -147 273 -584 416 -813 l47 -76 -34 -36 c-18 -21 -36 -49 -40 -64 -12 -48 4 -58 102 -67 49 -4 161 -16 249 -27 187 -24 273 -25 318 -6 38 15 84 66 93 103 11 43 -13 55 -133 65 -59 4 -157 18 -217 31 l-109 22 -82 140 c-44 77 -98 170 -119 207 l-37 68 73 0 c40 0 89 4 107 10 77 22 139 125 96 157 -11 7 -44 13 -74 13 -57 0 -212 22 -286 41 -40 10 -42 13 -103 135 -34 68 -62 126 -62 128 0 3 15 0 33 -5 17 -5 80 -16 139 -25 141 -20 205 -9 260 46 28 27 38 46 38 68 0 37 -22 52 -78 52 -55 0 -196 25 -334 60 -145 37 -171 37 -204 5z"/>
 </g>
</svg>