<svg version="1.0" xmlns="http://www.w3.org/2000/svg" width="720px" height="208px" viewBox="0 0 7200 2080" preserveAspectRatio="xMidYMid meet">
<g id="layer101" fill="#ffffff" stroke="none">
  <path d="M5052 2036 c-21 -19 -47 -50 -57 -69 l-18 -35 -66 26 c-92 36 -213 37 -289 3 -49 -22 -122 -91 -122 -115 0 -6 -4 -18 -9 -26 -8 -11 -21 -5 -71 34 -200 157 -417 162 -491 10 -47 -98 -36 -242 33 -416 l33 -83 -61 9 c-61 10 -62 10 -74 50 -17 56 -84 189 -133 261 -67 100 -183 207 -271 250 -69 35 -85 39 -154 38 -56 0 -93 -6 -134 -22 -60 -23 -153 -99 -177 -145 l-14 -26 -47 44 c-117 110 -237 161 -360 154 -49 -3 -89 -12 -115 -26 -41 -20 -125 -103 -125 -122 0 -19 -21 -10 -68 29 -112 93 -232 137 -352 128 -162 -12 -247 -90 -258 -238 -9 -128 69 -337 224 -598 48 -80 90 -150 93 -156 7 -13 -39 17 -106 67 -84 64 -226 220 -293 320 -34 51 -116 202 -182 336 -130 263 -145 284 -198 262 -41 -17 -87 -83 -101 -145 -15 -66 0 -159 42 -265 85 -213 411 -775 474 -816 54 -36 107 11 135 120 l16 64 64 -49 c132 -99 249 -144 313 -118 75 29 137 124 137 211 0 66 -28 133 -126 304 -179 311 -232 454 -194 525 33 60 159 -36 277 -211 60 -90 77 -123 143 -275 27 -65 92 -200 144 -301 l93 -183 -26 -6 c-80 -20 -146 -87 -139 -143 5 -41 38 -52 168 -52 l115 0 57 -98 c79 -134 168 -262 199 -284 86 -64 162 129 114 288 -19 63 -20 58 20 73 63 22 125 90 125 136 0 8 -9 24 -20 35 -17 17 -33 20 -109 20 -148 0 -134 -10 -238 173 -268 472 -332 622 -320 748 3 31 11 65 18 77 33 53 131 7 221 -101 87 -107 119 -168 141 -270 37 -178 115 -329 239 -462 129 -137 255 -205 383 -205 90 0 123 17 210 107 94 98 132 171 141 271 4 39 9 72 11 72 14 0 106 -55 143 -87 70 -58 117 -114 206 -242 44 -64 93 -123 107 -131 25 -14 30 -13 64 5 55 30 88 101 87 185 -1 82 -28 149 -128 319 -169 288 -242 475 -207 530 23 36 122 -49 233 -199 82 -111 199 -302 290 -473 114 -213 182 -328 212 -356 83 -78 186 39 173 198 -7 91 -32 152 -137 330 -105 177 -165 293 -191 370 -20 57 -25 127 -10 150 24 38 140 -32 226 -136 25 -31 77 -107 116 -170 61 -97 158 -238 248 -359 l23 -31 -21 -39 c-47 -87 -6 -215 108 -337 76 -81 138 -114 189 -101 75 19 95 102 58 243 -10 35 -15 65 -13 68 7 6 80 -32 156 -83 36 -23 77 -46 91 -49 64 -15 162 117 163 218 1 64 -15 95 -105 205 -146 179 -231 329 -251 445 -26 154 42 192 147 83 75 -78 120 -158 118 -209 -3 -53 22 -150 50 -195 26 -42 93 -92 123 -92 13 0 28 7 35 15 7 8 17 15 22 15 5 0 61 -79 124 -176 92 -138 119 -188 130 -235 8 -33 21 -74 30 -90 39 -76 159 -159 230 -159 17 0 44 10 59 22 24 19 27 26 23 69 -3 27 -17 72 -32 100 -24 46 -26 61 -26 164 0 63 7 192 16 287 15 159 14 299 -2 383 -9 53 106 -80 151 -172 21 -43 44 -86 53 -95 22 -25 55 -22 83 8 21 22 24 35 24 97 0 65 -4 79 -40 145 -137 252 -453 383 -735 305 -76 -21 -125 -48 -179 -98 l-47 -44 -44 45 c-25 25 -77 61 -119 82 -66 32 -86 37 -161 40 -106 5 -170 -18 -226 -80 -135 -150 -92 -390 122 -676 l54 -73 -47 7 c-96 14 -88 6 -211 219 -155 270 -235 430 -273 550 -18 55 -39 108 -47 118 -23 26 -58 20 -100 -17z m1397 -240 c25 -30 41 -152 41 -324 l0 -173 -100 151 c-101 151 -101 152 -89 188 20 64 57 129 85 151 31 25 47 26 63 7z m-3172 -27 c87 -42 222 -221 293 -388 l31 -72 -58 -63 c-32 -34 -67 -78 -78 -99 -11 -20 -24 -36 -30 -34 -20 6 -116 144 -155 222 -95 194 -128 455 -57 455 6 0 30 -9 54 -21z m412 -730 c1 -38 -21 -70 -34 -49 -9 15 -9 68 1 122 l7 43 13 -40 c7 -22 13 -56 13 -76z"/>
  <path d="M177 1979 c-15 -11 -47 -59 -73 -105 -43 -79 -46 -90 -41 -137 14 -135 285 -691 558 -1145 l98 -164 -34 -29 c-34 -30 -75 -105 -75 -137 0 -11 9 -27 20 -37 17 -16 46 -20 168 -27 81 -5 221 -19 312 -32 314 -47 388 -44 468 14 52 38 99 128 82 160 -15 29 -50 40 -123 40 -67 0 -193 17 -380 52 l-118 22 -53 85 c-29 47 -97 165 -151 261 -53 96 -105 189 -114 205 l-17 30 101 -3 c56 -2 120 1 142 7 54 15 116 61 136 102 48 103 31 123 -110 132 -95 7 -261 31 -381 57 l-53 12 -47 91 c-26 51 -65 131 -88 178 l-41 85 116 -23 c229 -46 379 -41 453 13 66 49 100 144 62 175 -9 7 -59 16 -118 20 -115 8 -253 34 -458 85 -160 40 -205 42 -241 13z"/>
 </g>
</svg>