<!DOCTYPE svg PUBLIC "-//W3C//DTD SVG 20010904//EN" "http://www.w3.org/TR/2001/REC-SVG-20010904/DTD/svg10.dtd">
<svg version="1.0" xmlns="http://www.w3.org/2000/svg" width="560px" height="680px" viewBox="0 0 5600 6800" preserveAspectRatio="xMidYMid meet">
<g id="layer101" fill="#ffffff" stroke="none">
 <path d="M690 6789 c-193 -23 -395 -130 -511 -273 -66 -80 -133 -216 -156 -313 -17 -74 -18 -158 -18 -1538 0 -1642 -5 -1533 76 -1694 80 -160 189 -270 344 -347 94 -46 222 -84 286 -84 l37 0 5 -487 c4 -458 5 -494 26 -588 145 -656 596 -1157 1231 -1365 225 -74 429 -100 785 -100 466 0 716 47 1020 190 502 236 870 689 993 1225 35 152 42 268 42 705 l0 420 38 0 c65 0 192 37 287 84 155 77 264 187 344 347 81 161 76 51 76 1699 0 1642 6 1516 -74 1684 -117 248 -346 406 -631 436 -119 12 -4093 11 -4200 -1z m3220 -4659 c0 -546 -15 -668 -101 -847 -54 -113 -163 -225 -269 -277 -157 -76 -182 -79 -670 -84 -480 -4 -558 1 -699 49 -107 36 -176 78 -253 154 -98 96 -148 187 -187 340 -32 126 -41 272 -41 688 l0 387 1110 0 1110 0 0 -410z"/>
 </g>

</svg>