<?xml version="1.0" encoding="UTF-8"?>
<svg width="200px" height="251px" viewBox="0 0 200 251" version="1.1" xmlns="http://www.w3.org/2000/svg" xmlns:xlink="http://www.w3.org/1999/xlink">
    <title>Combined Shape</title>
    <g id="Page-1" stroke="none" stroke-width="1" fill="none" fill-rule="evenodd">
        <path d="M100,0 C155.228475,0 200,44.771525 200,100 C200,121.367416 196.634929,147.381628 180.59375,172.992187 C155.173207,213.57738 103.185547,251 100,251 C96.8144531,251 45.1970242,215.227804 19.6289062,172.992187 C4.85430327,148.586227 0,120.226171 0,100 C0,44.771525 44.771525,0 100,0 Z M100,51 C72.3857625,51 50,73.3857625 50,101 C50,128.614237 72.3857625,151 100,151 C127.614237,151 150,128.614237 150,101 C150,73.3857625 127.614237,51 100,51 Z" id="Combined-Shape" fill="#00C972"></path>
    </g>
</svg>